<?xml version="1.0" encoding="utf-8"?>
<!-- Generator: Adobe Illustrator 19.0.0, SVG Export Plug-In . SVG Version: 6.00 Build 0)  -->
<svg version="1.1" id="Layer_1" xmlns="http://www.w3.org/2000/svg" xmlns:xlink="http://www.w3.org/1999/xlink" x="0px" y="0px"
	 viewBox="0 0 478 431.6" style="enable-background:new 0 0 478 431.6;" xml:space="preserve">
<style type="text/css">
	.st0{fill:#EA592D;}
	.st1{fill:#627D8B;}
	.st2{fill:#EA592E;}
</style>
<polygon id="XMLID_11_" class="st0" points="102,99.8 239,0 0,174 0,390.7 239,431.5 239,271.1 102,293.5 "/>
<polygon id="XMLID_10_" class="st1" points="239,102.5 239,0 102,99.8 102,293.5 170.5,282.3 170.5,215.8 239,193.5 239,138.4 
	170.5,168.5 170.5,137.8 "/>
<polygon id="XMLID_9_" class="st1" points="376,99.8 239,0.1 478,174.1 478,390.8 239,431.6 239,271.2 376,293.6 "/>
<polygon id="XMLID_8_" class="st2" points="239,102.6 239,0.1 376,99.8 376,293.6 307.5,282.4 307.5,215.8 239,193.5 239,138.5 
	307.5,168.6 307.5,137.8 "/>
</svg>
