<?xml version="1.0" encoding="utf-8"?>
<!-- Generator: Adobe Illustrator 19.0.0, SVG Export Plug-In . SVG Version: 6.00 Build 0)  -->
<svg version="1.1" id="Layer_1" xmlns="http://www.w3.org/2000/svg" xmlns:xlink="http://www.w3.org/1999/xlink" x="0px" y="0px"
	 viewBox="0 0 508 447.3" style="enable-background:new 0 0 508 447.3;" xml:space="preserve">
<style type="text/css">
	.st0{fill:#EA592D;stroke:#000000;stroke-width:10;stroke-miterlimit:10;}
	.st1{fill:#617D8B;stroke:#000000;stroke-width:10;stroke-miterlimit:10;}
</style>
<polygon id="XMLID_6_" class="st0" points="107,109.6 244,9.8 5,183.9 5,400.5 244,441.4 244,281 107,303.3 "/>
<polygon id="XMLID_7_" class="st1" points="244,112.4 244,9.8 107,109.6 107,303.3 175.5,292.1 175.5,225.6 244,203.3 244,148.2 
	175.5,178.4 175.5,147.6 "/>
<polygon id="XMLID_3_" class="st0" points="401,109.6 264,9.9 503,183.9 503,400.6 264,441.4 264,281 401,303.4 "/>
<polygon id="XMLID_2_" class="st1" points="264,112.4 264,9.9 401,109.6 401,303.4 332.5,292.2 332.5,225.6 264,203.4 264,148.3 
	332.5,178.4 332.5,147.7 "/>
</svg>
