<svg height="479.857" width="639.857" xmlns="http://www.w3.org/2000/svg" ><rect width="639.857" height="479.857" rx="0" ry="0" fill="none" /><path fill="none" stroke="#999" d="M0 0v479.857" stroke-width="8" opacity=".2" /><path fill="none" stroke="#999" d="M1 0v479.857" stroke-width="7" opacity=".2" /><path fill="none" stroke="#999" d="M8 0v479.857M24 0v479.857M27 0v479.857" stroke-width="4" opacity=".2" /><path fill="none" stroke="#999" d="M37 0v479.857" stroke-width="12" opacity=".2" /><path fill="none" stroke="#999" d="M39 0v479.857" stroke-width="11" opacity=".2" /><path fill="none" stroke="#999" d="M44 0v479.857" stroke-width="5" opacity=".2" /><path fill="none" stroke="#999" d="M59 0v479.857" stroke-width="14" opacity=".2" /><path fill="none" stroke="#999" d="M59 0v479.857" stroke-width="8" opacity=".2" /><path fill="none" stroke="#999" d="M68 0v479.857" stroke-width="13" opacity=".2" /><path fill="none" stroke="#999" d="M83 0v479.857" stroke-width="5" opacity=".2" /><path fill="none" stroke="#999" d="M85 0v479.857" stroke-width="12" opacity=".2" /><path fill="none" stroke="#999" d="M100 0v479.857" stroke-width="8" opacity=".2" /><path fill="none" stroke="#999" d="M118 0v479.857" stroke-width="3" opacity=".2" /><path fill="none" stroke="#999" d="M118 0v479.857" opacity=".2" /><path fill="none" stroke="#999" d="M128 0v479.857" stroke-width="8" opacity=".2" /><path fill="none" stroke="#999" d="M138 0v479.857" stroke-width="2" opacity=".2" /><path fill="none" stroke="#999" d="M158 0v479.857" stroke-width="10" opacity=".2" /><path fill="none" stroke="#999" d="M177 0v479.857" stroke-width="11" opacity=".2" /><path fill="none" stroke="#999" d="M177 0v479.857" stroke-width="15" opacity=".2" /><path fill="none" stroke="#999" d="M192 0v479.857" stroke-width="2" opacity=".2" /><path fill="none" stroke="#999" d="M209 0v479.857" opacity=".2" /><path fill="none" stroke="#999" d="M215 0v479.857" stroke-width="5" opacity=".2" /><path fill="none" stroke="#999" d="M223 0v479.857" stroke-width="12" opacity=".2" /><path fill="none" stroke="#999" d="M240 0v479.857" stroke-width="15" opacity=".2" /><path fill="none" stroke="#999" d="M240 0v479.857" opacity=".2" /><path fill="none" stroke="#999" d="M245 0v479.857" stroke-width="10" opacity=".2" /><path fill="none" stroke="#999" d="M246 0v479.857" stroke-width="9" opacity=".2" /><path fill="none" stroke="#999" d="M257 0v479.857" stroke-width="11" opacity=".2" /><path fill="none" stroke="#999" d="M266 0v479.857" stroke-width="6" opacity=".2" /><path fill="none" stroke="#999" d="M281 0v479.857" stroke-width="7" opacity=".2" /><path fill="none" stroke="#999" d="M286 0v479.857" stroke-width="4" opacity=".2" /><path fill="none" stroke="#999" d="M286 0v479.857" stroke-width="8" opacity=".2" /><path fill="none" stroke="#999" d="M301 0v479.857" stroke-width="15" opacity=".2" /><path fill="none" stroke="#999" d="M309 0v479.857" stroke-width="7" opacity=".2" /><path fill="none" stroke="#999" d="M329 0v479.857" stroke-width="10" opacity=".2" /><path fill="none" stroke="#999" d="M337 0v479.857" opacity=".2" /><path fill="none" stroke="#999" d="M350 0v479.857" stroke-width="11" opacity=".2" /><path fill="none" stroke="#999" d="M370 0v479.857" stroke-width="6" opacity=".2" /><path fill="none" stroke="#999" d="M381 0v479.857" stroke-width="11" opacity=".2" /><path fill="none" stroke="#999" d="M383 0v479.857" stroke-width="8" opacity=".2" /><path fill="none" stroke="#999" d="M385 0v479.857" stroke-width="5" opacity=".2" /><path fill="none" stroke="#999" d="M398 0v479.857" stroke-width="12" opacity=".2" /><path fill="none" stroke="#999" d="M410 0v479.857" stroke-width="13" opacity=".2" /><path fill="none" stroke="#999" d="M424 0v479.857" stroke-width="7" opacity=".2" /><path fill="none" stroke="#999" d="M437 0v479.857" stroke-width="6" opacity=".2" /><path fill="none" stroke="#999" d="M453 0v479.857" stroke-width="10" opacity=".2" /><path fill="none" stroke="#999" d="M455 0v479.857" stroke-width="8" opacity=".2" /><path fill="none" stroke="#999" d="M468 0v479.857" stroke-width="9" opacity=".2" /><path fill="none" stroke="#999" d="M482 0v479.857" stroke-width="6" opacity=".2" /><path fill="none" stroke="#999" d="M499 0v479.857" stroke-width="13" opacity=".2" /><path fill="none" stroke="#999" d="M516 0v479.857" stroke-width="9" opacity=".2" /><path fill="none" stroke="#999" d="M536 0v479.857" stroke-width="12" opacity=".2" /><path fill="none" stroke="#999" d="M553 0v479.857" stroke-width="5" opacity=".2" /><path fill="none" stroke="#999" d="M566 0v479.857" stroke-width="4" opacity=".2" /><path fill="none" stroke="#999" d="M573 0v479.857" stroke-width="9" opacity=".2" /><path fill="none" stroke="#999" d="M585 0v479.857" opacity=".2" /><path fill="none" stroke="#999" d="M587 0v479.857" stroke-width="2" opacity=".2" /><path fill="none" stroke="#999" d="M596 0v479.857" stroke-width="5" opacity=".2" /><path fill="none" stroke="#999" d="M603 0v479.857" stroke-width="13" opacity=".2" /><path fill="none" stroke="#999" d="M607 0v479.857" stroke-width="12" opacity=".2" /><path fill="none" stroke="#999" d="M618 0v479.857" stroke-width="5" opacity=".2" /><path fill="none" stroke="#999" d="M624 0v479.857" stroke-width="3" opacity=".2" /><path fill="none" stroke="#999" d="M635 0v479.857" stroke-width="8" opacity=".2" /><path fill="none" stroke="#999" d="M639 0v479.857" stroke-width="9" opacity=".2" /></svg>