<svg xmlns="http://www.w3.org/2000/svg" xmlns:xlink="http://www.w3.org/1999/xlink" viewBox="0 0 300 300"><defs><linearGradient id="c" y2="156" gradientUnits="userSpaceOnUse" y1="216" gradientTransform="translate(-540 796.36)" x2="-640" x1="-680"><stop offset="0" stop-color="#e2e2e2"/><stop offset="1" stop-color="#fff"/></linearGradient></defs><g transform="translate(0 44)"><path id="a" fill="#ccc" d="M0 0h256v256H0z"/><use id="b" xlink:href="#a" transform="translate(0 -44) scale(1.1719)" height="256" width="256"/><use xlink:href="#b" height="300" width="300"/></g><path d="M1916.398 3025.47c4.588 7.542-.596 12.37-7.584 15.939-9.886 5.046-34.345 2.587-42.719-2.48-7.685-4.65-11.096-11.51-7.436-17.461" stroke-linejoin="round" stroke="#000" stroke-linecap="round" stroke-width="4.9994971" fill="#fff"/><path d="M1832.539 2970.193c-1.055 19.306 17.102 49.611 38.612 56.653 11.107 3.636 36.103 4.735 44.928-1.762 15.11-11.125 22.75-25.466 26.204-43.197 1.224-6.285 2.101-13.525 1.178-19.33-3.914-24.647-18.713-22.394-24.218-23.81-2.397-15.598-.869-40.085 2.317-62.552 3.387-23.883-29.966-17.863-32.91 4.543-1.378 10.493-3.762 19.093-6.29 42.583-3.872-12.65-10.379-30.821-12.563-43.384-3.601-20.714-33.31-8.297-28.374 16.938 3.361 17.185 8.703 29.845 11.989 46.217-3.455 2.78-19.766 6.999-20.868 27.155z" stroke-linejoin="round" stroke="#000" stroke-linecap="round" stroke-width="4.9994971" fill="#fff"/><path d="M1879.594 2922.845c3.739 15.587 9.223 22.732 11.264 26.37-2.61-9.71-3.53-12.102-5.533-22.67-.339-1.792-.439-3.938-.143-6.556zM1921.462 2936.621l-5.064-.358c.937 8.616 3.037 11.559 6.558 18.61-.205-6.52-.972-9.49-1.494-18.252zM1850.6 2941.902c4.79 20.63-1.478 28.738-5.647 39.279 6.334-10.912 14.946-14.515 10.884-38.705z" style="block-progression:tb;text-indent:0;text-transform:none" color="#000"/><g><path style="block-progression:tb;text-indent:0;text-transform:none" d="M1837.6 2874.94c1.64-10.931 21.509-18.813 31.663-9.566-7.992-18.015-37.025-4.705-31.663 9.566z" color="#000"/></g><g><path style="block-progression:tb;text-indent:0;text-transform:none" d="M1893.226 2861.469c4.505-10.094 25.759-12.371 33.068-.744-2.88-19.496-34.416-14.441-33.068.744z" color="#000"/></g><path d="M1892.656 2957.94c-2.897 5.1-7.651 8.352-12 12h6.781c-.12 3.03-.918 7.705-1.625 11.344-3.568.684-7.979 1.606-11.344 1.688v-6.844c-3.831 4.5-7.578 9.271-12 12 5.1 2.896 8.352 7.65 12 12v-6.813c3.022.12 7.677.95 11.312 1.656.684 3.568 1.606 7.98 1.688 11.345h-6.813c4.5 3.83 9.272 7.578 12 12 2.897-5.1 7.62-8.353 11.97-12h-6.782c.12-3.03.918-7.705 1.625-11.344 3.568-.685 7.98-1.606 11.344-1.688v6.844c3.831-4.5 7.578-9.272 12-12-5.1-2.897-8.352-7.651-12-12v6.812c-3.022-.12-7.677-.95-11.312-1.656-.684-3.567-1.606-7.98-1.688-11.344h6.813c-4.5-3.831-9.24-7.578-11.969-12z"/><g><path d="M-1260 952.36l20-20v10l10-100 10-10 20 20-10 50 20-20 20 20 10-10 20 20v-10l30 30-10 60v10l-30 30h-70l-40-40 10-20z" fill="url(#c)" transform="translate(1340 -742.36)"/><path d="M110 90h20v10h-20zM100 100h10v110h-10zM130 100h10v90h-10zM140 140h20v10h-20zM160 150h10v40h-10zM170 150h20v10h-20zM190 160h20v10h-20zM190 170h10v30h-10zM210 170h10v10h-10zM220 180h10v70h-10zM90 190h10v10H90zM80 200h10v60H80zM90 260.04h10v10H90zM110 280.04h90v10h-90zM210 250h10v20h-10zM100 270.04h10v10h-10zM200 270.04h10v10h-10zM110 60h20v10h-20zM100 70h10v10h-10zM130 70h10v10h-10zM100 40h40v10h-40zM90 50h10v10H90zM140 50h10v10h-10z"/></g></svg>